<?xml version="1.0"?><svg width="640" height="480" xmlns="http://www.w3.org/2000/svg">
 <title>Red divider</title>
 <metadata id="metadata11">image/svg+xmlIceHandOrnamental Divider / Englische Liniedividerornamentenglische linie2009-03-21</metadata>
 <g>
  <title>Layer 1</title>
  <g id="g2388">
   <path fill="#bf0000" id="path6" d="m309.156494,228.994492c0.844147,-1.905151 2.148315,-3.670029 3.84726,-5.112427c1.30304,-1.105988 2.845612,-2.019867 4.554382,-2.61647c1.422089,-0.498413 2.958221,-0.768661 4.498596,-0.76709c1.540222,-0.001572 3.076385,0.268677 4.498474,0.76709c1.708862,0.596603 3.251343,1.510483 4.554443,2.61647c1.698944,1.442398 3.003021,3.207275 3.84729,5.112427c0.274811,1.352112 0.410583,2.72966 0.311188,4.101013c-0.047699,0.661026 -0.14978,1.319489 -0.311188,1.967545c-0.317474,1.082626 -0.881073,2.114014 -1.661072,3.013565c-0.876038,1.015457 -2.015045,1.858688 -3.286133,2.504593c-1.536285,0.781601 -3.256805,1.286346 -5.018555,1.548981c-2.046082,0.30304 -4.158051,0.286545 -6.196625,-0.051651c-1.729919,-0.288635 -3.41391,-0.814636 -4.909302,-1.611084c-1.236969,-0.657974 -2.338593,-1.508316 -3.179321,-2.522522c-0.733215,-0.881119 -1.264435,-1.881561 -1.562042,-2.929276c-0.309235,-1.164871 -0.48764,-2.360458 -0.437195,-3.555817c0.034088,-0.832977 0.181213,-1.663208 0.449799,-2.465347zm21.500397,2.427429c-5.733521,0 -11.466919,0 -17.200348,0c-0.00119,1.041946 0.201996,2.091599 0.674286,3.056976c0.425781,0.877045 1.076782,1.675735 1.900787,2.31839c0.971039,0.761459 2.169342,1.303421 3.440735,1.606445c1.840118,0.438934 3.838043,0.397598 5.647522,-0.126663c1.203766,-0.348465 2.322937,-0.92009 3.217194,-1.689026c0.783691,-0.669922 1.386139,-1.487793 1.766998,-2.373154c0.386475,-0.891815 0.553497,-1.845078 0.552826,-2.792969z"/>
   <path fill="#bf0000" id="path2380" d="m18.905191,230.208191c91.496229,-3.236557 182.992544,-6.473129 274.488729,-9.709686c2.570038,-0.007599 5.187439,0.492645 7.371735,1.670135c2.125122,1.127167 3.751099,2.859238 4.727356,4.804214c0.335449,0.671524 0.621613,1.364899 0.809021,2.07663c0.275208,1.994598 0.319611,4.021423 -0.007843,6.013565c-0.909058,2.273209 -2.736206,4.270584 -5.083466,5.611542c-2.014862,1.153442 -4.469604,1.77243 -6.904755,1.654694c-91.800293,-2.826645 -183.600555,-5.653275 -275.400778,-8.479935c-1.232643,-0.011246 -2.482925,-0.159088 -3.627829,-0.560165c-0.523424,-0.197433 -1.084592,-0.465561 -1.316369,-0.935059c-0.145587,-0.342239 -0.062089,-0.732925 0.123639,-1.052353c0.331708,-0.530243 1.037385,-0.778214 1.693734,-0.906052c1.024413,-0.193924 2.082976,-0.184296 3.126824,-0.187531zm281.655508,1.21373c-59.245605,0 -118.49118,0 -177.736786,0c-0.017578,0.603439 0.375519,1.172592 0.944443,1.520706c0.889114,0.552521 2.001175,0.764832 3.079231,0.864609c0.686203,0.053986 1.376167,0.043579 2.06443,0.065674c54.827271,1.205856 109.654587,2.411713 164.481903,3.617569c1.686096,0.007141 3.416687,-0.396942 4.733185,-1.314499c1.246277,-0.851379 2.035828,-2.120819 2.302032,-3.447906c0.09021,-0.430878 0.131561,-0.868683 0.131561,-1.306152z"/>
   <path fill="#bf0000" id="path2386" d="m625.093689,230.208191c-91.496277,-3.236557 -182.992554,-6.473129 -274.488861,-9.709686c-2.570038,-0.007599 -5.187378,0.492645 -7.371765,1.670135c-2.125092,1.127167 -3.751068,2.859238 -4.727325,4.804214c-0.335419,0.671524 -0.621613,1.364899 -0.80899,2.07663c-0.275269,1.994598 -0.319641,4.021423 0.007813,6.013565c0.909088,2.273209 2.736267,4.270584 5.083435,5.611542c2.014923,1.153442 4.469727,1.77243 6.904846,1.654694c91.800262,-2.826645 183.600555,-5.653275 275.400848,-8.479935c1.232666,-0.011246 2.482788,-0.159088 3.627808,-0.560165c0.523438,-0.197433 1.084534,-0.465561 1.316345,-0.935059c0.145569,-0.342239 0.062012,-0.732925 -0.123596,-1.052353c-0.331726,-0.530243 -1.037415,-0.778214 -1.693848,-0.906052c-1.024292,-0.193924 -2.083008,-0.184296 -3.126709,-0.187531zm-281.65567,1.21373c59.245667,0 118.491302,0 177.736847,0c0.017578,0.603439 -0.375427,1.172592 -0.944397,1.520706c-0.888977,0.552521 -2.001282,0.764832 -3.079163,0.864609c-0.686279,0.053986 -1.376282,0.043579 -2.064453,0.065674c-54.827301,1.205856 -109.654724,2.411713 -164.482025,3.617569c-1.686035,0.007141 -3.416656,-0.396942 -4.733154,-1.314499c-1.246338,-0.851379 -2.035889,-2.120819 -2.302032,-3.447906c-0.090118,-0.430878 -0.131622,-0.868683 -0.131622,-1.306152z"/>
  </g>
 </g>
</svg>