<?xml version="1.0" encoding="utf-8"?>
<!-- Uploaded to: SVG Repo, www.svgrepo.com, Generator: SVG Repo Mixer Tools -->
<svg width="20" height="20" viewBox="0 0 1024 1024" fill="currentColor" class="icon"  version="1.1" xmlns="http://www.w3.org/2000/svg"><path d="M40.82 112.086c-4.42 0-8.074-3.578-8.074-7.996 0-4.42 3.498-7.998 7.902-7.998h0.172a8.002 8.002 0 0 1 7.996 7.998 8.002 8.002 0 0 1-7.996 7.996zM72.806 112.086c-4.42 0-8.074-3.578-8.074-7.996 0-4.42 3.498-7.998 7.902-7.998h0.172a8.002 8.002 0 0 1 7.996 7.998 8.002 8.002 0 0 1-7.996 7.996zM104.792 112.086c-4.42 0-8.074-3.578-8.074-7.996 0-4.42 3.498-7.998 7.902-7.998h0.172a8.002 8.002 0 0 1 7.996 7.998 8.002 8.002 0 0 1-7.996 7.996z" fill="" /><path d="M871.958 128.078H8.352a7.99 7.99 0 0 1-7.996-7.996v-15.992c0-13.228 10.76-23.99 23.988-23.99h831.622c13.226 0 23.988 10.762 23.988 23.99v15.992a7.992 7.992 0 0 1-7.996 7.996zM16.348 112.086H863.96v-7.996c0-4.342-3.656-7.998-7.996-7.998H24.344a8.012 8.012 0 0 0-7.996 7.998v7.996z" fill="" /><path d="M871.958 399.954a7.99 7.99 0 0 1-7.996-7.996V120.082c0-4.42 3.576-7.996 7.996-7.996s7.996 3.576 7.996 7.996v271.876a7.994 7.994 0 0 1-7.996 7.996zM8.352 703.822a8 8 0 0 1-7.996-7.996V120.082c0-4.42 3.576-7.996 7.996-7.996s7.996 3.576 7.996 7.996v575.744a8 8 0 0 1-7.996 7.996z" fill="" /><path d="M392.176 703.822H8.352a8 8 0 0 1-7.996-7.996 7.98 7.98 0 0 1 7.996-7.996h383.824a7.98 7.98 0 0 1 7.996 7.996 8 8 0 0 1-7.996 7.996z" fill="" /><path d="M40.336 703.822a8 8 0 0 1-7.996-7.996V120.082c0-4.42 3.576-7.996 7.996-7.996s7.998 3.576 7.998 7.996v575.744a8.002 8.002 0 0 1-7.998 7.996z" fill="" /><path d="M24.344 176.056H8.352A7.992 7.992 0 0 1 0.356 168.06a7.992 7.992 0 0 1 7.996-7.998h15.992a7.992 7.992 0 0 1 7.996 7.998 7.99 7.99 0 0 1-7.996 7.996zM24.344 224.034H8.352a7.992 7.992 0 0 1-7.996-7.996 7.992 7.992 0 0 1 7.996-7.998h15.992a7.992 7.992 0 0 1 7.996 7.998 7.99 7.99 0 0 1-7.996 7.996zM24.344 272.012H8.352c-4.42 0-7.996-3.576-7.996-7.996s3.576-7.996 7.996-7.996h15.992c4.42 0 7.996 3.576 7.996 7.996s-3.576 7.996-7.996 7.996zM24.344 319.99H8.352c-4.42 0-7.996-3.576-7.996-7.996s3.576-7.996 7.996-7.996h15.992c4.42 0 7.996 3.576 7.996 7.996s-3.576 7.996-7.996 7.996zM24.344 367.968H8.352c-4.42 0-7.996-3.576-7.996-7.996s3.576-7.998 7.996-7.998h15.992c4.42 0 7.996 3.578 7.996 7.998s-3.576 7.996-7.996 7.996zM24.344 415.946H8.352c-4.42 0-7.996-3.576-7.996-7.996s3.576-7.998 7.996-7.998h15.992c4.42 0 7.996 3.578 7.996 7.998s-3.576 7.996-7.996 7.996zM24.344 463.924H8.352c-4.42 0-7.996-3.576-7.996-7.996s3.576-7.996 7.996-7.996h15.992c4.42 0 7.996 3.576 7.996 7.996s-3.576 7.996-7.996 7.996zM24.344 511.902H8.352c-4.42 0-7.996-3.576-7.996-7.996s3.576-7.996 7.996-7.996h15.992c4.42 0 7.996 3.576 7.996 7.996s-3.576 7.996-7.996 7.996zM24.344 559.888H8.352a8 8 0 0 1-7.996-7.996 7.982 7.982 0 0 1 7.996-7.998h15.992a7.982 7.982 0 0 1 7.996 7.998 8 8 0 0 1-7.996 7.996zM24.344 607.868H8.352a8.002 8.002 0 0 1-7.996-7.996 7.98 7.98 0 0 1 7.996-7.998h15.992a7.98 7.98 0 0 1 7.996 7.998 8.002 8.002 0 0 1-7.996 7.996zM24.344 655.844H8.352a8 8 0 0 1-7.996-7.996 7.98 7.98 0 0 1 7.996-7.996h15.992a7.98 7.98 0 0 1 7.996 7.996 8 8 0 0 1-7.996 7.996zM152.286 176.056H88.314a7.992 7.992 0 0 1-7.996-7.996 7.992 7.992 0 0 1 7.996-7.998h63.97a7.992 7.992 0 0 1 7.996 7.998 7.988 7.988 0 0 1-7.994 7.996zM440.154 224.034H216.256a7.992 7.992 0 0 1-7.996-7.996 7.992 7.992 0 0 1 7.996-7.998h223.898a7.992 7.992 0 0 1 7.996 7.998 7.99 7.99 0 0 1-7.996 7.996zM184.272 224.034H104.306a7.992 7.992 0 0 1-7.996-7.996 7.992 7.992 0 0 1 7.996-7.998h79.964a7.992 7.992 0 0 1 7.996 7.998 7.988 7.988 0 0 1-7.994 7.996zM632.066 272.012H424.16c-4.418 0-7.996-3.576-7.996-7.996s3.578-7.996 7.996-7.996h207.906c4.42 0 7.996 3.576 7.996 7.996s-3.576 7.996-7.996 7.996zM728.024 272.012h-63.972c-4.418 0-7.996-3.576-7.996-7.996s3.578-7.996 7.996-7.996h63.972c4.418 0 7.996 3.576 7.996 7.996s-3.578 7.996-7.996 7.996zM392.176 272.012H120.3c-4.42 0-7.996-3.576-7.996-7.996s3.576-7.996 7.996-7.996h271.876c4.42 0 7.996 3.576 7.996 7.996s-3.576 7.996-7.996 7.996zM168.278 367.968H120.3c-4.42 0-7.996-3.576-7.996-7.996s3.576-7.998 7.996-7.998h47.976c4.42 0 7.998 3.578 7.998 7.998s-3.576 7.996-7.996 7.996zM437.654 367.968H200.264c-4.42 0-7.996-3.576-7.996-7.996s3.576-7.998 7.996-7.998h237.39c4.42 0 7.996 3.578 7.996 7.998s-3.576 7.996-7.996 7.996zM504.124 319.99H136.292c-4.42 0-7.996-3.576-7.996-7.996s3.576-7.996 7.996-7.996h367.832c4.42 0 7.996 3.576 7.996 7.996s-3.576 7.996-7.996 7.996zM424.16 415.946h-79.962c-4.42 0-7.996-3.576-7.996-7.996s3.576-7.998 7.996-7.998h79.962c4.42 0 7.998 3.578 7.998 7.998s-3.578 7.996-7.998 7.996zM376.184 463.924H104.306c-4.42 0-7.996-3.576-7.996-7.996s3.576-7.996 7.996-7.996h271.876c4.42 0 7.996 3.576 7.996 7.996s-3.574 7.996-7.994 7.996zM264.234 559.888H104.306a8 8 0 0 1-7.996-7.996 7.982 7.982 0 0 1 7.996-7.998h159.928a7.982 7.982 0 0 1 7.996 7.998 8 8 0 0 1-7.996 7.996zM232.248 607.868H104.306a8.002 8.002 0 0 1-7.996-7.996 7.98 7.98 0 0 1 7.996-7.998h127.942c4.42 0 7.998 3.56 7.998 7.998a8.004 8.004 0 0 1-7.998 7.996zM376.184 511.902h-47.978c-4.42 0-7.996-3.576-7.996-7.996s3.576-7.996 7.996-7.996h47.978c4.42 0 7.996 3.576 7.996 7.996s-3.576 7.996-7.996 7.996zM296.218 511.902H120.3c-4.42 0-7.996-3.576-7.996-7.996s3.576-7.996 7.996-7.996h175.918c4.42 0 7.998 3.576 7.998 7.996s-3.578 7.996-7.998 7.996zM152.286 655.844H88.314a8 8 0 0 1-7.996-7.996 7.98 7.98 0 0 1 7.996-7.996h63.97a8 8 0 0 1 0.002 15.992zM312.212 415.946H120.3c-4.42 0-7.996-3.576-7.996-7.996s3.576-7.998 7.996-7.998h191.912c4.42 0 7.996 3.578 7.996 7.998s-3.576 7.996-7.996 7.996z" fill="" /><path d="M647.606 815.772c-66.218 0-128.458-25.77-175.28-72.592-96.626-96.676-96.626-253.94 0-350.598 46.822-46.822 109.06-72.592 175.28-72.592s128.458 25.77 175.28 72.592c96.626 96.658 96.626 253.922 0 350.598-46.824 46.822-109.06 72.592-175.28 72.592z m0-479.79c-61.94 0-120.18 24.116-163.97 67.906-90.396 90.428-90.396 237.556 0 327.982 43.792 43.792 102.032 67.906 163.97 67.906 61.942 0 120.18-24.114 163.972-67.906 90.396-90.426 90.396-237.554 0-327.982-43.792-43.79-102.032-67.906-163.972-67.906z" fill="" /><path d="M974.722 936.902a7.966 7.966 0 0 1-5.654-2.342l-153.774-153.742a7.992 7.992 0 0 1 0-11.306 7.992 7.992 0 0 1 11.306 0l153.774 153.742a7.992 7.992 0 0 1 0 11.306 7.954 7.954 0 0 1-5.652 2.342z" fill="" /><path d="M1008.644 902.98a7.974 7.974 0 0 1-5.654-2.342l-153.774-153.742a7.992 7.992 0 0 1 0-11.306 7.992 7.992 0 0 1 11.306 0l153.774 153.742a7.992 7.992 0 0 1-5.652 13.648z" fill="" /><path d="M991.684 943.9a31.96 31.96 0 0 1-22.616-9.34 7.992 7.992 0 0 1 0-11.306 7.992 7.992 0 0 1 11.306 0 15.99 15.99 0 0 0 22.616 0c6.232-6.248 6.232-16.398 0-22.616a7.992 7.992 0 0 1 0-11.306 7.992 7.992 0 0 1 11.306 0c12.464 12.462 12.464 32.766 0 45.228a31.936 31.936 0 0 1-22.612 9.34z" fill="" /><path d="M648.058 671.836c-39.684 0-71.966-39.48-71.966-87.958 0-48.51 32.284-87.966 71.966-87.966 39.686 0 71.966 39.458 71.966 87.966 0.002 48.478-32.28 87.958-71.966 87.958z m0-159.934c-30.86 0-55.974 32.274-55.974 71.974 0 39.67 25.116 71.966 55.974 71.966 30.862 0 55.974-32.296 55.974-71.966 0.002-39.7-25.112-71.974-55.974-71.974z" fill="" /><path d="M710.75 575.88h-125.38a8 8 0 0 1-7.996-7.996 7.98 7.98 0 0 1 7.996-7.996h125.38a7.982 7.982 0 0 1 7.996 7.996 8 8 0 0 1-7.996 7.996z" fill="" /><path d="M648.058 671.836a8 8 0 0 1-7.996-7.996v-95.956c0-4.436 3.576-7.996 7.996-7.996s7.996 3.56 7.996 7.996v95.956a8 8 0 0 1-7.996 7.996zM664.05 495.91a7.968 7.968 0 0 1-5.652-2.344 7.992 7.992 0 0 1 0-11.306l31.984-31.986a7.994 7.994 0 0 1 11.308 0 7.994 7.994 0 0 1 0 11.308l-31.986 31.984a7.966 7.966 0 0 1-5.654 2.344zM632.066 495.91a7.972 7.972 0 0 1-5.654-2.344l-31.984-31.984c-3.124-3.124-3.124-8.184 0-11.308s8.184-3.124 11.306 0l31.984 31.986a7.992 7.992 0 0 1 0 11.306 7.96 7.96 0 0 1-5.652 2.344zM744.016 591.874h-15.992a8 8 0 0 1-7.998-7.996 7.98 7.98 0 0 1 7.998-7.996h15.992a7.982 7.982 0 0 1 7.996 7.996 8.002 8.002 0 0 1-7.996 7.996zM728.07 559.888c-0.218 0-0.406 0-0.546-0.032-4.406-0.282-7.764-4.06-7.482-8.464a7.972 7.972 0 0 1 7.326-7.466c1.076-0.686 8.652-6.652 8.652-40.02a7.99 7.99 0 0 1 7.996-7.996 7.992 7.992 0 0 1 7.996 7.996c0 25.84-4.374 43.02-12.994 51.11-4.608 4.342-9.06 4.872-10.948 4.872zM744.016 671.804a7.98 7.98 0 0 1-7.996-7.996c0-35.764-8.7-40.042-8.792-40.074-4.296-0.094-7.544-3.032-7.824-7.434-0.282-4.406 3.714-8.152 8.122-8.434 1.326-0.188 6.356 0 11.494 4.84 8.622 8.09 12.994 25.27 12.994 51.102a7.984 7.984 0 0 1-7.998 7.996zM568.096 591.874h-15.992a8.002 8.002 0 0 1-7.998-7.996 7.982 7.982 0 0 1 7.998-7.996h15.992a7.98 7.98 0 0 1 7.996 7.996 8 8 0 0 1-7.996 7.996zM552.104 671.836a8 8 0 0 1-7.998-7.996c0-25.832 4.376-43.042 12.996-51.132 5.136-4.808 10.088-5.028 11.494-4.84a8.012 8.012 0 0 1 7.48 8.496 7.996 7.996 0 0 1-7.324 7.464c-1.078 0.656-8.652 6.622-8.652 40.012a8 8 0 0 1-7.996 7.996zM568.048 559.888c-1.89 0-6.342-0.532-10.948-4.842-8.622-8.09-12.996-25.3-12.996-51.124 0-4.42 3.578-7.996 7.998-7.996s7.996 3.576 7.996 7.996c0 35.758 8.7 40.036 8.792 40.066 4.358-0.094 7.542 3.032 7.824 7.466 0.282 4.404-3.716 8.152-8.122 8.434h-0.544z" fill="" /><path d="M456.146 575.88a8 8 0 0 1-7.996-7.996c0-110.238 89.678-199.916 199.908-199.916 4.42 0 7.996 3.576 7.996 7.996s-3.576 7.996-7.996 7.996c-101.406 0-183.916 82.51-183.916 183.924a8 8 0 0 1-7.996 7.996z" fill="" /></svg>